<svg id="my-svg" width="100%" xmlns="http://www.w3.org/2000/svg" xmlns:xlink="http://www.w3.org/1999/xlink" class="flowchart" style="max-width: 770.089px; background-color: white;" viewBox="0 0 770.08935546875 185.03125" role="graphics-document document" aria-roledescription="flowchart-v2"><style>#my-svg{font-family:"trebuchet ms",verdana,arial,sans-serif;font-size:16px;fill:#333;}@keyframes edge-animation-frame{from{stroke-dashoffset:0;}}@keyframes dash{to{stroke-dashoffset:0;}}#my-svg .edge-animation-slow{stroke-dasharray:9,5!important;stroke-dashoffset:900;animation:dash 50s linear infinite;stroke-linecap:round;}#my-svg .edge-animation-fast{stroke-dasharray:9,5!important;stroke-dashoffset:900;animation:dash 20s linear infinite;stroke-linecap:round;}#my-svg .error-icon{fill:#552222;}#my-svg .error-text{fill:#552222;stroke:#552222;}#my-svg .edge-thickness-normal{stroke-width:1px;}#my-svg .edge-thickness-thick{stroke-width:3.5px;}#my-svg .edge-pattern-solid{stroke-dasharray:0;}#my-svg .edge-thickness-invisible{stroke-width:0;fill:none;}#my-svg .edge-pattern-dashed{stroke-dasharray:3;}#my-svg .edge-pattern-dotted{stroke-dasharray:2;}#my-svg .marker{fill:#333333;stroke:#333333;}#my-svg .marker.cross{stroke:#333333;}#my-svg svg{font-family:"trebuchet ms",verdana,arial,sans-serif;font-size:16px;}#my-svg p{margin:0;}#my-svg .label{font-family:"trebuchet ms",verdana,arial,sans-serif;color:#333;}#my-svg .cluster-label text{fill:#333;}#my-svg .cluster-label span{color:#333;}#my-svg .cluster-label span p{background-color:transparent;}#my-svg .label text,#my-svg span{fill:#333;color:#333;}#my-svg .node rect,#my-svg .node circle,#my-svg .node ellipse,#my-svg .node polygon,#my-svg .node path{fill:#ECECFF;stroke:#9370DB;stroke-width:1px;}#my-svg .rough-node .label text,#my-svg .node .label text,#my-svg .image-shape .label,#my-svg .icon-shape .label{text-anchor:middle;}#my-svg .node .katex path{fill:#000;stroke:#000;stroke-width:1px;}#my-svg .rough-node .label,#my-svg .node .label,#my-svg .image-shape .label,#my-svg .icon-shape .label{text-align:center;}#my-svg .node.clickable{cursor:pointer;}#my-svg .root .anchor path{fill:#333333!important;stroke-width:0;stroke:#333333;}#my-svg .arrowheadPath{fill:#333333;}#my-svg .edgePath .path{stroke:#333333;stroke-width:2.0px;}#my-svg .flowchart-link{stroke:#333333;fill:none;}#my-svg .edgeLabel{background-color:rgba(232,232,232, 0.8);text-align:center;}#my-svg .edgeLabel p{background-color:rgba(232,232,232, 0.8);}#my-svg .edgeLabel rect{opacity:0.5;background-color:rgba(232,232,232, 0.8);fill:rgba(232,232,232, 0.8);}#my-svg .labelBkg{background-color:rgba(232, 232, 232, 0.5);}#my-svg .cluster rect{fill:#ffffde;stroke:#aaaa33;stroke-width:1px;}#my-svg .cluster text{fill:#333;}#my-svg .cluster span{color:#333;}#my-svg div.mermaidTooltip{position:absolute;text-align:center;max-width:200px;padding:2px;font-family:"trebuchet ms",verdana,arial,sans-serif;font-size:12px;background:hsl(80, 100%, 96.2745098039%);border:1px solid #aaaa33;border-radius:2px;pointer-events:none;z-index:100;}#my-svg .flowchartTitleText{text-anchor:middle;font-size:18px;fill:#333;}#my-svg rect.text{fill:none;stroke-width:0;}#my-svg .icon-shape,#my-svg .image-shape{background-color:rgba(232,232,232, 0.8);text-align:center;}#my-svg .icon-shape p,#my-svg .image-shape p{background-color:rgba(232,232,232, 0.8);padding:2px;}#my-svg .icon-shape rect,#my-svg .image-shape rect{opacity:0.5;background-color:rgba(232,232,232, 0.8);fill:rgba(232,232,232, 0.8);}#my-svg .label-icon{display:inline-block;height:1em;overflow:visible;vertical-align:-0.125em;}#my-svg .node .label-icon path{fill:currentColor;stroke:revert;stroke-width:revert;}#my-svg :root{--mermaid-font-family:"trebuchet ms",verdana,arial,sans-serif;}</style><g><marker id="my-svg_flowchart-v2-pointEnd" class="marker flowchart-v2" viewBox="0 0 10 10" refX="5" refY="5" markerUnits="userSpaceOnUse" markerWidth="8" markerHeight="8" orient="auto"><path d="M 0 0 L 10 5 L 0 10 z" class="arrowMarkerPath" style="stroke-width: 1; stroke-dasharray: 1, 0;"/></marker><marker id="my-svg_flowchart-v2-pointStart" class="marker flowchart-v2" viewBox="0 0 10 10" refX="4.5" refY="5" markerUnits="userSpaceOnUse" markerWidth="8" markerHeight="8" orient="auto"><path d="M 0 5 L 10 10 L 10 0 z" class="arrowMarkerPath" style="stroke-width: 1; stroke-dasharray: 1, 0;"/></marker><marker id="my-svg_flowchart-v2-circleEnd" class="marker flowchart-v2" viewBox="0 0 10 10" refX="11" refY="5" markerUnits="userSpaceOnUse" markerWidth="11" markerHeight="11" orient="auto"><circle cx="5" cy="5" r="5" class="arrowMarkerPath" style="stroke-width: 1; stroke-dasharray: 1, 0;"/></marker><marker id="my-svg_flowchart-v2-circleStart" class="marker flowchart-v2" viewBox="0 0 10 10" refX="-1" refY="5" markerUnits="userSpaceOnUse" markerWidth="11" markerHeight="11" orient="auto"><circle cx="5" cy="5" r="5" class="arrowMarkerPath" style="stroke-width: 1; stroke-dasharray: 1, 0;"/></marker><marker id="my-svg_flowchart-v2-crossEnd" class="marker cross flowchart-v2" viewBox="0 0 11 11" refX="12" refY="5.2" markerUnits="userSpaceOnUse" markerWidth="11" markerHeight="11" orient="auto"><path d="M 1,1 l 9,9 M 10,1 l -9,9" class="arrowMarkerPath" style="stroke-width: 2; stroke-dasharray: 1, 0;"/></marker><marker id="my-svg_flowchart-v2-crossStart" class="marker cross flowchart-v2" viewBox="0 0 11 11" refX="-1" refY="5.2" markerUnits="userSpaceOnUse" markerWidth="11" markerHeight="11" orient="auto"><path d="M 1,1 l 9,9 M 10,1 l -9,9" class="arrowMarkerPath" style="stroke-width: 2; stroke-dasharray: 1, 0;"/></marker><g class="root"><g class="clusters"/><g class="edgePaths"><path d="M110.609,96.015L114.776,91.515C118.943,87.015,127.276,78.015,134.943,73.516C142.609,69.016,149.609,69.016,153.109,69.016L156.609,69.016" id="L_Source_Discovery_0" class="edge-thickness-normal edge-pattern-solid edge-thickness-normal edge-pattern-solid flowchart-link" style=";" data-edge="true" data-et="edge" data-id="L_Source_Discovery_0" data-points="W3sieCI6MTEwLjYwOTM3NSwieSI6OTYuMDE0OTQ3NDIyMDg2NTh9LHsieCI6MTM1LjYwOTM3NSwieSI6NjkuMDE1NjI1fSx7IngiOjE2MC42MDkzNzUsInkiOjY5LjAxNTYyNX1d" marker-end="url(#my-svg_flowchart-v2-pointEnd)"/><path d="M282.641,69.016L292.568,69.016C302.495,69.016,322.349,69.016,341.536,69.016C360.724,69.016,379.245,69.016,388.505,69.016L397.766,69.016" id="L_Discovery_Mapping_0" class="edge-thickness-normal edge-pattern-solid edge-thickness-normal edge-pattern-solid flowchart-link" style=";" data-edge="true" data-et="edge" data-id="L_Discovery_Mapping_0" data-points="W3sieCI6MjgyLjY0MDYyNSwieSI6NjkuMDE1NjI1fSx7IngiOjM0Mi4yMDMxMjUsInkiOjY5LjAxNTYyNX0seyJ4Ijo0MDEuNzY1NjI1LCJ5Ijo2OS4wMTU2MjV9XQ==" marker-end="url(#my-svg_flowchart-v2-pointEnd)"/><path d="M579.625,69.016L583.792,69.016C587.958,69.016,596.292,69.016,608.982,73.538C621.672,78.06,638.719,87.104,647.243,91.627L655.767,96.149" id="L_Mapping_Projection_0" class="edge-thickness-normal edge-pattern-solid edge-thickness-normal edge-pattern-solid flowchart-link" style=";" data-edge="true" data-et="edge" data-id="L_Mapping_Projection_0" data-points="W3sieCI6NTc5LjYyNSwieSI6NjkuMDE1NjI1fSx7IngiOjYwNC42MjUsInkiOjY5LjAxNTYyNX0seyJ4Ijo2NTkuMzAwMTMyNDE4NzI2NywieSI6OTguMDIzNDM3NTAwMDAwMDd9XQ==" marker-end="url(#my-svg_flowchart-v2-pointEnd)"/><path d="M659.3,137.023L650.188,141.691C641.075,146.359,622.85,155.695,594.749,160.363C566.648,165.031,528.672,165.031,484.935,165.031C441.198,165.031,391.701,165.031,346.855,165.031C302.01,165.031,261.818,165.031,227.385,165.031C192.953,165.031,164.281,165.031,146.232,161.021C128.182,157.01,120.754,148.988,117.041,144.978L113.327,140.967" id="L_Projection_Source_0" class="edge-thickness-normal edge-pattern-solid edge-thickness-normal edge-pattern-solid flowchart-link" style=";" data-edge="true" data-et="edge" data-id="L_Projection_Source_0" data-points="W3sieCI6NjU5LjMwMDEzMjQxODcyNjQsInkiOjEzNy4wMjM0Mzc1fSx7IngiOjYwNC42MjUsInkiOjE2NS4wMzEyNX0seyJ4Ijo0OTAuNjk1MzEyNSwieSI6MTY1LjAzMTI1fSx7IngiOjM0Mi4yMDMxMjUsInkiOjE2NS4wMzEyNX0seyJ4IjoyMjEuNjI1LCJ5IjoxNjUuMDMxMjV9LHsieCI6MTM1LjYwOTM3NSwieSI6MTY1LjAzMTI1fSx7IngiOjExMC42MDkzNzUsInkiOjEzOC4wMzE5Mjc1Nzc5MTM0Mn1d" marker-end="url(#my-svg_flowchart-v2-pointEnd)"/></g><g class="edgeLabels"><g class="edgeLabel"><g class="label" data-id="L_Source_Discovery_0" transform="translate(0, 0)"><foreignObject width="0" height="0"><div xmlns="http://www.w3.org/1999/xhtml" class="labelBkg" style="display: table-cell; white-space: nowrap; line-height: 1.5; max-width: 200px; text-align: center;"><span class="edgeLabel"></span></div></foreignObject></g></g><g class="edgeLabel"><g class="label" data-id="L_Discovery_Mapping_0" transform="translate(0, 0)"><foreignObject width="0" height="0"><div xmlns="http://www.w3.org/1999/xhtml" class="labelBkg" style="display: table-cell; white-space: nowrap; line-height: 1.5; max-width: 200px; text-align: center;"><span class="edgeLabel"></span></div></foreignObject></g></g><g class="edgeLabel"><g class="label" data-id="L_Mapping_Projection_0" transform="translate(0, 0)"><foreignObject width="0" height="0"><div xmlns="http://www.w3.org/1999/xhtml" class="labelBkg" style="display: table-cell; white-space: nowrap; line-height: 1.5; max-width: 200px; text-align: center;"><span class="edgeLabel"></span></div></foreignObject></g></g><g class="edgeLabel" transform="translate(342.203125, 165.03125)"><g class="label" data-id="L_Projection_Source_0" transform="translate(-34.5625, -12)"><foreignObject width="69.125" height="24"><div xmlns="http://www.w3.org/1999/xhtml" class="labelBkg" style="display: table-cell; white-space: nowrap; line-height: 1.5; max-width: 200px; text-align: center;"><span class="edgeLabel"><p>Fail-Open</p></span></div></foreignObject></g></g></g><g class="nodes"><g class="node default" id="flowchart-Source-0" transform="translate(59.3046875, 117.0234375)"><path d="M0,11.270337063225096 a51.3046875,11.270337063225096 0,0,0 102.609375,0 a51.3046875,11.270337063225096 0,0,0 -102.609375,0 l0,50.2703370632251 a51.3046875,11.270337063225096 0,0,0 102.609375,0 l0,-50.2703370632251" class="basic label-container" style="fill:#bbf !important;stroke:#333 !important;stroke-width:2px !important" transform="translate(-51.3046875, -36.40550559483765)"/><g class="label" style="" transform="translate(-43.8046875, -2)"><rect/><foreignObject width="87.609375" height="24"><div xmlns="http://www.w3.org/1999/xhtml" style="display: table-cell; white-space: nowrap; line-height: 1.5; max-width: 200px; text-align: center;"><span class="nodeLabel"><p>Repo Source</p></span></div></foreignObject></g></g><g class="node default" id="flowchart-Discovery-1" transform="translate(221.625, 69.015625)"><polygon points="61.015625,0 122.03125,-61.015625 61.015625,-122.03125 0,-61.015625" class="label-container" transform="translate(-60.515625, 61.015625)" style="fill:#dfd !important;stroke:#333 !important;stroke-width:2px !important"/><g class="label" style="" transform="translate(-34.015625, -12)"><rect/><foreignObject width="68.03125" height="24"><div xmlns="http://www.w3.org/1999/xhtml" style="display: table-cell; white-space: nowrap; line-height: 1.5; max-width: 200px; text-align: center;"><span class="nodeLabel"><p>Discovery</p></span></div></foreignObject></g></g><g class="node default" id="flowchart-Mapping-3" transform="translate(490.6953125, 69.015625)"><rect class="basic label-container" style="fill:#dfd !important;stroke:#333 !important;stroke-width:2px !important" x="-88.9296875" y="-27" width="177.859375" height="54"/><g class="label" style="" transform="translate(-58.9296875, -12)"><rect/><foreignObject width="117.859375" height="24"><div xmlns="http://www.w3.org/1999/xhtml" style="display: table-cell; white-space: nowrap; line-height: 1.5; max-width: 200px; text-align: center;"><span class="nodeLabel"><p>Fidelity Mapping</p></span></div></foreignObject></g></g><g class="node default" id="flowchart-Projection-5" transform="translate(695.8571701049805, 117.0234375)"><g class="basic label-container outer-path"><path d="M-46.7421875 -19.5 C-18.044524434730512 -19.5, 10.653138630538976 -19.5, 46.7421875 -19.5 C46.7421875 -19.5, 46.7421875 -19.5, 46.7421875 -19.5 C47.08031247097471 -19.489156990301172, 47.41843744194942 -19.478313980602344, 47.9915567896239 -19.45993515863156 C48.45706450663065 -19.415028189026856, 48.922572223637395 -19.370121219422156, 49.235792152847864 -19.3399052695533 C49.70544815409217 -19.26397492950881, 50.17510415533647 -19.188044589464315, 50.46978075967676 -19.140403561325776 C50.7909904592834 -19.06708954347974, 51.11220015889004 -18.9937755256337, 51.68845188623539 -18.862249829261074 C51.93520427668417 -18.789015015005607, 52.181956667132944 -18.71578020075014, 52.886797751460605 -18.50658706670804 C53.3530097506006 -18.335016741408044, 53.8192217497406 -18.163446416108048, 54.0598940951478 -18.074876768247425 C54.4116090140603 -17.91918300689723, 54.76332393297281 -17.763489245547042, 55.20292041279238 -17.568892924097174 C55.446905981048374 -17.44160580941824, 55.69089154930437 -17.3143186947393, 56.31117976407678 -16.990714730406097 C56.587069092123755 -16.82346899843837, 56.86295842017073 -16.65622326647064, 57.3801180736057 -16.342718045390892 C57.65853343125859 -16.14850754429882, 57.93694878891148 -15.954297043206743, 58.40534284457871 -15.627565626425154 C58.74003577821607 -15.360656918402377, 59.074728711853425 -15.0937482103796, 59.382641208501866 -14.848196188198123 C59.6115168682232 -14.640337369757328, 59.84039252794452 -14.432478551316532, 60.30799723676799 -14.007812326905688 C60.64951859256506 -13.655163487620438, 60.99103994836213 -13.30251464833519, 61.17760844296865 -13.10986736009568 C61.36008704444679 -12.89551761147288, 61.542565645924945 -12.681167862850078, 61.98790140812658 -12.158051136245305 C62.20367447720092 -11.868934881016672, 62.41944754627526 -11.579818625788038, 62.735546464640635 -11.156274872382312 C62.94184830936329 -10.83933983908631, 63.14815015408593 -10.522404805790307, 63.41747137860425 -10.108655082055241 C63.612698985449576 -9.762008697162496, 63.807926592294905 -9.415362312269751, 64.0308739742735 -9.019496659696287 C64.16973168828478 -8.731155645472732, 64.30858940229608 -8.442814631249176, 64.57323364880834 -7.893275190886684 C64.68883725433396 -7.6077320501947225, 64.8044408598596 -7.322188909502761, 65.04232172997033 -6.734618561215508 C65.16077137492533 -6.377867102999039, 65.27922101988034 -6.021115644782569, 65.43621063421489 -5.548287939305138 C65.54513318772288 -5.132919035445855, 65.65405574123086 -4.717550131586572, 65.75328178754556 -4.339158212148133 C65.80874863678633 -4.054347664219509, 65.8642154860271 -3.769537116290885, 65.99223227658177 -3.1121979531509023 C66.02451024249166 -2.861856423559172, 66.05678820840154 -2.611514893967442, 66.15208020250937 -1.872449005199798 C66.1754076264042 -1.5091055484801101, 66.19873505029904 -1.1457620917604223, 66.23216871591342 -0.6250057626472757 C66.23216871591342 -0.2694002004957056, 66.23216871591342 0.08620536165586445, 66.23216871591342 0.625005762647271 C66.2145752928347 0.8990375282538172, 66.19698186975597 1.1730692938603635, 66.15208020250937 1.8724490051997846 C66.08971380293775 2.3561504846386354, 66.02734740336614 2.8398519640774857, 65.99223227658177 3.1121979531508885 C65.90513226338724 3.5594381123104744, 65.81803225019273 4.006678271470061, 65.75328178754556 4.339158212148129 C65.64713257166702 4.743951177654189, 65.54098335578848 5.14874414316025, 65.43621063421489 5.548287939305125 C65.32884422746451 5.8716584499234195, 65.22147782071416 6.195028960541714, 65.04232172997033 6.734618561215495 C64.93303566147281 7.004557263306737, 64.8237495929753 7.274495965397978, 64.57323364880834 7.893275190886679 C64.40578127753102 8.240993622750809, 64.2383289062537 8.58871205461494, 64.0308739742735 9.019496659696284 C63.862717180669804 9.318076074461429, 63.694560387066105 9.616655489226572, 63.41747137860425 10.108655082055236 C63.18585545209672 10.464479342755553, 62.95423952558919 10.82030360345587, 62.73554646464064 11.156274872382301 C62.5283977223324 11.433835315436694, 62.32124898002416 11.711395758491086, 61.98790140812658 12.158051136245302 C61.79026914252631 12.39020124101386, 61.59263687692605 12.622351345782421, 61.17760844296866 13.10986736009567 C60.982998377370514 13.31081823060929, 60.788388311772366 13.511769101122907, 60.30799723676799 14.007812326905684 C60.11885191615124 14.179589102578868, 59.9297065955345 14.351365878252054, 59.38264120850189 14.848196188198111 C59.00895989703859 15.14619709001277, 58.635278585575286 15.444197991827428, 58.40534284457871 15.627565626425152 C58.190313325865155 15.777560910201892, 57.9752838071516 15.927556193978631, 57.38011807360571 16.34271804539089 C57.13792800223862 16.48953508992046, 56.89573793087152 16.636352134450032, 56.31117976407678 16.990714730406093 C56.060924255182485 17.121272869099947, 55.81066874628819 17.2518310077938, 55.20292041279239 17.56889292409717 C54.95538345421921 17.678470192734533, 54.70784649564603 17.7880474613719, 54.059894095147804 18.07487676824742 C53.69526705110481 18.20906289103069, 53.33064000706181 18.34324901381396, 52.88679775146062 18.506587066708033 C52.458243756277035 18.633779642952696, 52.02968976109345 18.76097221919736, 51.68845188623541 18.86224982926107 C51.20453334606929 18.972701078190397, 50.72061480590316 19.08315232711972, 50.469780759676766 19.140403561325773 C50.15730647719915 19.190921980042503, 49.844832194721526 19.24144039875923, 49.23579215284788 19.3399052695533 C48.96637108343069 19.365895996093734, 48.69695001401349 19.391886722634165, 47.9915567896239 19.45993515863156 C47.71252293176584 19.46888323134661, 47.43348907390778 19.477831304061663, 46.74218750000001 19.5 C46.74218750000001 19.5, 46.7421875 19.5, 46.7421875 19.5 C12.290501942971915 19.5, -22.16118361405617 19.5, -46.74218749999999 19.5 C-47.10619727061995 19.488326915158254, -47.47020704123991 19.476653830316508, -47.99155678962389 19.45993515863156 C-48.28990978790894 19.43115340370898, -48.58826278619399 19.4023716487864, -49.23579215284787 19.3399052695533 C-49.66274872937219 19.27087824135855, -50.0897053058965 19.2018512131638, -50.46978075967676 19.140403561325773 C-50.7889469910152 19.067555951777077, -51.10811322235364 18.994708342228382, -51.688451886235384 18.862249829261074 C-52.0842061937879 18.74479202813624, -52.479960501340415 18.627334227011406, -52.88679775146059 18.506587066708043 C-53.152650182960265 18.408750914403228, -53.41850261445994 18.31091476209841, -54.0598940951478 18.074876768247425 C-54.295445711429984 17.970605055109736, -54.530997327712164 17.866333341972048, -55.20292041279238 17.568892924097174 C-55.58997501845885 17.36696678424128, -55.97702962412533 17.165040644385392, -56.31117976407678 16.990714730406097 C-56.53086201182509 16.857542060824887, -56.750544259573395 16.724369391243677, -57.380118073605686 16.3427180453909 C-57.753955342110935 16.081945350036165, -58.12779261061618 15.821172654681432, -58.40534284457871 15.627565626425156 C-58.649765317695575 15.432645208469634, -58.89418779081244 15.23772479051411, -59.382641208501866 14.848196188198125 C-59.59809537472779 14.652526415036597, -59.813549540953716 14.456856641875067, -60.307997236767974 14.007812326905697 C-60.5479759889791 13.760014562625738, -60.78795474119022 13.512216798345777, -61.177608442968655 13.109867360095677 C-61.35002578161884 12.907336143292675, -61.52244312026902 12.704804926489674, -61.987901408126575 12.158051136245307 C-62.217482111762784 11.850433908605156, -62.44706281539899 11.542816680965005, -62.735546464640635 11.156274872382316 C-62.98255770086076 10.776799281743955, -63.229568937080884 10.397323691105594, -63.41747137860425 10.108655082055249 C-63.60822418751963 9.769954154009545, -63.798976996435016 9.431253225963841, -64.0308739742735 9.019496659696289 C-64.19946428323289 8.669415275887385, -64.36805459219227 8.31933389207848, -64.57323364880834 7.893275190886686 C-64.66718899969189 7.6612036577011775, -64.76114435057545 7.429132124515669, -65.04232172997033 6.73461856121551 C-65.19446519172253 6.276386695186544, -65.34660865347473 5.81815482915758, -65.43621063421489 5.5482879393051325 C-65.5075207536018 5.276351548081602, -65.5788308729887 5.004415156858072, -65.75328178754556 4.339158212148136 C-65.83001471501456 3.9451508471047987, -65.90674764248355 3.5511434820614616, -65.99223227658177 3.112197953150904 C-66.02952384409168 2.8229719195969367, -66.06681541160161 2.533745886042969, -66.15208020250937 1.872449005199809 C-66.17585025503145 1.5022112503272442, -66.19962030755354 1.1319734954546794, -66.23216871591342 0.6250057626472781 C-66.23216871591342 0.3659526039913897, -66.23216871591342 0.10689944533550122, -66.23216871591342 -0.6250057626472687 C-66.20080791771598 -1.1134755085529784, -66.16944711951855 -1.601945254458688, -66.15208020250937 -1.8724490051997822 C-66.09825611241288 -2.2898980192192973, -66.0444320223164 -2.7073470332388125, -65.99223227658177 -3.112197953150895 C-65.94100419181795 -3.3752433413535945, -65.88977610705412 -3.6382887295562942, -65.75328178754556 -4.339158212148126 C-65.68458627583142 -4.601123971137263, -65.61589076411728 -4.863089730126401, -65.43621063421489 -5.548287939305123 C-65.30901199482332 -5.931389974801531, -65.18181335543177 -6.314492010297941, -65.04232172997033 -6.734618561215485 C-64.93503319142663 -6.999623325701192, -64.82774465288294 -7.264628090186899, -64.57323364880834 -7.893275190886676 C-64.39378422651619 -8.265905755878888, -64.21433480422402 -8.638536320871099, -64.0308739742735 -9.019496659696282 C-63.90688489813716 -9.239651819631764, -63.78289582200082 -9.459806979567247, -63.41747137860425 -10.108655082055243 C-63.18758270158081 -10.46182582371657, -62.95769402455737 -10.814996565377898, -62.73554646464064 -11.156274872382308 C-62.54859895387869 -11.406767505534727, -62.36165144311674 -11.657260138687144, -61.98790140812659 -12.158051136245302 C-61.74299744582559 -12.445729265794283, -61.49809348352459 -12.733407395343264, -61.17760844296866 -13.10986736009567 C-60.848859962644134 -13.449327156782935, -60.520111482319614 -13.788786953470202, -60.307997236767996 -14.007812326905677 C-60.039641300593246 -14.2515260878306, -59.771285364418496 -14.495239848755523, -59.38264120850189 -14.848196188198107 C-59.001724934153124 -15.151966780383477, -58.62080865980436 -15.455737372568846, -58.40534284457872 -15.627565626425149 C-58.11959449596497 -15.826891304571458, -57.83384614735122 -16.026216982717767, -57.380118073605715 -16.342718045390885 C-56.975295017693355 -16.588124160889297, -56.570471961781 -16.83353027638771, -56.31117976407679 -16.99071473040609 C-55.89423403723305 -17.208235049033988, -55.4772883103893 -17.42575536766189, -55.20292041279239 -17.56889292409717 C-54.793925474340824 -17.749942850945892, -54.38493053588927 -17.930992777794614, -54.059894095147804 -18.07487676824742 C-53.81007229372548 -18.16681350049825, -53.56025049230317 -18.25875023274908, -52.88679775146062 -18.506587066708033 C-52.52659582276248 -18.613493108407134, -52.16639389406434 -18.720399150106235, -51.68845188623541 -18.862249829261067 C-51.27355010119079 -18.956948454210327, -50.85864831614617 -19.051647079159586, -50.469780759676766 -19.140403561325773 C-50.010617442685884 -19.214637525552153, -49.551454125695 -19.288871489778536, -49.23579215284788 -19.3399052695533 C-48.947895071086904 -19.36767835478388, -48.65999798932593 -19.395451440014465, -47.9915567896239 -19.45993515863156 C-47.5676961376446 -19.473527544745824, -47.143835485665306 -19.487119930860093, -46.74218750000001 -19.5 C-46.74218750000001 -19.5, -46.7421875 -19.5, -46.7421875 -19.5" stroke="none" stroke-width="0" fill="#f9f" style="fill:#f9f !important;stroke:#333 !important;stroke-width:2px !important"/><path d="M-46.7421875 -19.5 C-27.061909788902568 -19.5, -7.381632077805136 -19.5, 46.7421875 -19.5 M-46.7421875 -19.5 C-24.812821043744215 -19.5, -2.88345458748843 -19.5, 46.7421875 -19.5 M46.7421875 -19.5 C46.7421875 -19.5, 46.7421875 -19.5, 46.7421875 -19.5 M46.7421875 -19.5 C46.7421875 -19.5, 46.7421875 -19.5, 46.7421875 -19.5 M46.7421875 -19.5 C47.17458182383337 -19.486133955639158, 47.60697614766674 -19.472267911278315, 47.9915567896239 -19.45993515863156 M46.7421875 -19.5 C47.187308986286354 -19.48572582031121, 47.63243047257271 -19.47145164062242, 47.9915567896239 -19.45993515863156 M47.9915567896239 -19.45993515863156 C48.30003254543262 -19.430176873465065, 48.60850830124134 -19.400418588298574, 49.235792152847864 -19.3399052695533 M47.9915567896239 -19.45993515863156 C48.484989796318736 -19.41233426991572, 48.97842280301358 -19.364733381199883, 49.235792152847864 -19.3399052695533 M49.235792152847864 -19.3399052695533 C49.54016168448171 -19.29069716409971, 49.844531216115556 -19.24148905864612, 50.46978075967676 -19.140403561325776 M49.235792152847864 -19.3399052695533 C49.619128114936274 -19.27793048401763, 50.00246407702468 -19.215955698481963, 50.46978075967676 -19.140403561325776 M50.46978075967676 -19.140403561325776 C50.91212951290051 -19.039440344997836, 51.35447826612426 -18.938477128669895, 51.68845188623539 -18.862249829261074 M50.46978075967676 -19.140403561325776 C50.720505892438595 -19.08317718590728, 50.97123102520043 -19.02595081048879, 51.68845188623539 -18.862249829261074 M51.68845188623539 -18.862249829261074 C52.055151636759334 -18.753415268151837, 52.42185138728328 -18.6445807070426, 52.886797751460605 -18.50658706670804 M51.68845188623539 -18.862249829261074 C52.15640711125552 -18.7233631748222, 52.62436233627565 -18.58447652038333, 52.886797751460605 -18.50658706670804 M52.886797751460605 -18.50658706670804 C53.163243898612464 -18.404852329115982, 53.43969004576433 -18.303117591523925, 54.0598940951478 -18.074876768247425 M52.886797751460605 -18.50658706670804 C53.22396943554475 -18.382504770184195, 53.56114111962889 -18.258422473660346, 54.0598940951478 -18.074876768247425 M54.0598940951478 -18.074876768247425 C54.472831635882926 -17.892081568320908, 54.885769176618055 -17.70928636839439, 55.20292041279238 -17.568892924097174 M54.0598940951478 -18.074876768247425 C54.363495783111354 -17.940481307010046, 54.66709747107491 -17.806085845772667, 55.20292041279238 -17.568892924097174 M55.20292041279238 -17.568892924097174 C55.62153453969189 -17.350502202228846, 56.040148666591406 -17.132111480360514, 56.31117976407678 -16.990714730406097 M55.20292041279238 -17.568892924097174 C55.50489008975996 -17.411355537043995, 55.80685976672754 -17.25381814999082, 56.31117976407678 -16.990714730406097 M56.31117976407678 -16.990714730406097 C56.55563267522436 -16.842525939103673, 56.800085586371935 -16.69433714780125, 57.3801180736057 -16.342718045390892 M56.31117976407678 -16.990714730406097 C56.528924092705694 -16.858716838783543, 56.746668421334604 -16.726718947160986, 57.3801180736057 -16.342718045390892 M57.3801180736057 -16.342718045390892 C57.69802239767594 -16.12096175077588, 58.01592672174618 -15.899205456160864, 58.40534284457871 -15.627565626425154 M57.3801180736057 -16.342718045390892 C57.648802316499214 -16.155295548701794, 57.91748655939272 -15.967873052012694, 58.40534284457871 -15.627565626425154 M58.40534284457871 -15.627565626425154 C58.71567149477883 -15.380086786082764, 59.026000144978944 -15.132607945740373, 59.382641208501866 -14.848196188198123 M58.40534284457871 -15.627565626425154 C58.63727993805244 -15.44260196648513, 58.869217031526155 -15.257638306545104, 59.382641208501866 -14.848196188198123 M59.382641208501866 -14.848196188198123 C59.71504699316232 -14.546314049544618, 60.04745277782276 -14.244431910891112, 60.30799723676799 -14.007812326905688 M59.382641208501866 -14.848196188198123 C59.585320210720596 -14.664128480975615, 59.78799921293932 -14.480060773753106, 60.30799723676799 -14.007812326905688 M60.30799723676799 -14.007812326905688 C60.617003828579456 -13.68873765094734, 60.926010420390924 -13.369662974988993, 61.17760844296865 -13.10986736009568 M60.30799723676799 -14.007812326905688 C60.643450837813155 -13.661428942573705, 60.97890443885833 -13.31504555824172, 61.17760844296865 -13.10986736009568 M61.17760844296865 -13.10986736009568 C61.464370243412795 -12.7730206320853, 61.751132043856934 -12.436173904074918, 61.98790140812658 -12.158051136245305 M61.17760844296865 -13.10986736009568 C61.40859525247244 -12.838537110130728, 61.639582061976235 -12.567206860165776, 61.98790140812658 -12.158051136245305 M61.98790140812658 -12.158051136245305 C62.188550440866045 -11.889199711877346, 62.389199473605515 -11.620348287509389, 62.735546464640635 -11.156274872382312 M61.98790140812658 -12.158051136245305 C62.156525013840756 -11.932110866514815, 62.32514861955493 -11.706170596784327, 62.735546464640635 -11.156274872382312 M62.735546464640635 -11.156274872382312 C62.9188424098024 -10.874683078760858, 63.10213835496416 -10.593091285139405, 63.41747137860425 -10.108655082055241 M62.735546464640635 -11.156274872382312 C62.90444313085648 -10.896804237969587, 63.07333979707232 -10.63733360355686, 63.41747137860425 -10.108655082055241 M63.41747137860425 -10.108655082055241 C63.660227807198716 -9.67761646133181, 63.90298423579319 -9.24657784060838, 64.0308739742735 -9.019496659696287 M63.41747137860425 -10.108655082055241 C63.56670752724057 -9.843671188352742, 63.715943675876886 -9.578687294650244, 64.0308739742735 -9.019496659696287 M64.0308739742735 -9.019496659696287 C64.24061963305844 -8.583955311391211, 64.45036529184337 -8.148413963086133, 64.57323364880834 -7.893275190886684 M64.0308739742735 -9.019496659696287 C64.16598646067055 -8.738932690748719, 64.3010989470676 -8.45836872180115, 64.57323364880834 -7.893275190886684 M64.57323364880834 -7.893275190886684 C64.71798511181598 -7.5357362786786615, 64.86273657482363 -7.178197366470638, 65.04232172997033 -6.734618561215508 M64.57323364880834 -7.893275190886684 C64.74593153116011 -7.466708082591399, 64.91862941351188 -7.040140974296114, 65.04232172997033 -6.734618561215508 M65.04232172997033 -6.734618561215508 C65.15617100220507 -6.391722692662592, 65.27002027443983 -6.048826824109675, 65.43621063421489 -5.548287939305138 M65.04232172997033 -6.734618561215508 C65.1323448003576 -6.463483416437448, 65.22236787074488 -6.192348271659388, 65.43621063421489 -5.548287939305138 M65.43621063421489 -5.548287939305138 C65.50460974853115 -5.287452472053566, 65.5730088628474 -5.026617004801993, 65.75328178754556 -4.339158212148133 M65.43621063421489 -5.548287939305138 C65.5099744517864 -5.266994533464181, 65.58373826935792 -4.985701127623224, 65.75328178754556 -4.339158212148133 M65.75328178754556 -4.339158212148133 C65.84124417581943 -3.887489939219198, 65.92920656409328 -3.4358216662902628, 65.99223227658177 -3.1121979531509023 M65.75328178754556 -4.339158212148133 C65.80431992143922 -4.077088181517598, 65.85535805533289 -3.8150181508870626, 65.99223227658177 -3.1121979531509023 M65.99223227658177 -3.1121979531509023 C66.05177139219981 -2.65042432974565, 66.11131050781785 -2.1886507063403973, 66.15208020250937 -1.872449005199798 M65.99223227658177 -3.1121979531509023 C66.04379505402453 -2.712287233526986, 66.09535783146728 -2.31237651390307, 66.15208020250937 -1.872449005199798 M66.15208020250937 -1.872449005199798 C66.17649539638364 -1.4921626530182204, 66.20091059025792 -1.1118763008366428, 66.23216871591342 -0.6250057626472757 M66.15208020250937 -1.872449005199798 C66.17303926767495 -1.5459946473928627, 66.19399833284055 -1.2195402895859275, 66.23216871591342 -0.6250057626472757 M66.23216871591342 -0.6250057626472757 C66.23216871591342 -0.14322551028021913, 66.23216871591342 0.33855474208683745, 66.23216871591342 0.625005762647271 M66.23216871591342 -0.6250057626472757 C66.23216871591342 -0.2636514449204404, 66.23216871591342 0.09770287280639489, 66.23216871591342 0.625005762647271 M66.23216871591342 0.625005762647271 C66.20265170460075 1.0847570395446726, 66.17313469328809 1.544508316442074, 66.15208020250937 1.8724490051997846 M66.23216871591342 0.625005762647271 C66.20242774891969 1.0882453300510815, 66.17268678192596 1.551484897454892, 66.15208020250937 1.8724490051997846 M66.15208020250937 1.8724490051997846 C66.11290354456291 2.1762954279263003, 66.07372688661647 2.4801418506528163, 65.99223227658177 3.1121979531508885 M66.15208020250937 1.8724490051997846 C66.09742094540084 2.2963754096423257, 66.04276168829232 2.7203018140848663, 65.99223227658177 3.1121979531508885 M65.99223227658177 3.1121979531508885 C65.9309907568733 3.426660213454161, 65.86974923716481 3.7411224737574336, 65.75328178754556 4.339158212148129 M65.99223227658177 3.1121979531508885 C65.91836622400884 3.4914845215171826, 65.8445001714359 3.870771089883476, 65.75328178754556 4.339158212148129 M65.75328178754556 4.339158212148129 C65.68660381563346 4.593430217464821, 65.61992584372135 4.847702222781513, 65.43621063421489 5.548287939305125 M65.75328178754556 4.339158212148129 C65.68197132991303 4.611095893248832, 65.61066087228049 4.883033574349536, 65.43621063421489 5.548287939305125 M65.43621063421489 5.548287939305125 C65.283199197731 6.0091340069329595, 65.13018776124709 6.469980074560794, 65.04232172997033 6.734618561215495 M65.43621063421489 5.548287939305125 C65.34017501009185 5.837531937964924, 65.24413938596884 6.126775936624723, 65.04232172997033 6.734618561215495 M65.04232172997033 6.734618561215495 C64.86433822189294 7.174241267243666, 64.68635471381556 7.613863973271837, 64.57323364880834 7.893275190886679 M65.04232172997033 6.734618561215495 C64.93895477514825 6.989936938090143, 64.83558782032617 7.2452553149647905, 64.57323364880834 7.893275190886679 M64.57323364880834 7.893275190886679 C64.39515936872218 8.263050243664825, 64.217085088636 8.632825296442972, 64.0308739742735 9.019496659696284 M64.57323364880834 7.893275190886679 C64.46246213777297 8.123294603682272, 64.35169062673761 8.353314016477864, 64.0308739742735 9.019496659696284 M64.0308739742735 9.019496659696284 C63.80205892243885 9.425780954265173, 63.5732438706042 9.832065248834061, 63.41747137860425 10.108655082055236 M64.0308739742735 9.019496659696284 C63.79477242706191 9.43871886464461, 63.558670879850304 9.857941069592936, 63.41747137860425 10.108655082055236 M63.41747137860425 10.108655082055236 C63.19371352154054 10.452407237902747, 62.96995566447683 10.796159393750257, 62.73554646464064 11.156274872382301 M63.41747137860425 10.108655082055236 C63.16552106777895 10.495718417614382, 62.91357075695365 10.882781753173528, 62.73554646464064 11.156274872382301 M62.73554646464064 11.156274872382301 C62.532636386672394 11.428155891371368, 62.329726308704146 11.700036910360435, 61.98790140812658 12.158051136245302 M62.73554646464064 11.156274872382301 C62.538443010840204 11.420375543980848, 62.34133955703977 11.684476215579394, 61.98790140812658 12.158051136245302 M61.98790140812658 12.158051136245302 C61.811517666673254 12.365241515475594, 61.635133925219925 12.572431894705884, 61.17760844296866 13.10986736009567 M61.98790140812658 12.158051136245302 C61.722915971350226 12.469318108381312, 61.45793053457386 12.780585080517323, 61.17760844296866 13.10986736009567 M61.17760844296866 13.10986736009567 C60.84017633826634 13.458293711891832, 60.502744233564016 13.806720063687994, 60.30799723676799 14.007812326905684 M61.17760844296866 13.10986736009567 C60.9141351224562 13.381925195086692, 60.65066180194374 13.653983030077715, 60.30799723676799 14.007812326905684 M60.30799723676799 14.007812326905684 C60.07894482122848 14.215831670303851, 59.84989240568897 14.423851013702018, 59.38264120850189 14.848196188198111 M60.30799723676799 14.007812326905684 C60.0266310350586 14.263341666756402, 59.74526483334921 14.518871006607121, 59.38264120850189 14.848196188198111 M59.38264120850189 14.848196188198111 C59.02848461254401 15.130626648971695, 58.67432801658613 15.41305710974528, 58.40534284457871 15.627565626425152 M59.38264120850189 14.848196188198111 C59.0252359172972 15.133217396979616, 58.66783062609251 15.418238605761118, 58.40534284457871 15.627565626425152 M58.40534284457871 15.627565626425152 C58.11621619745988 15.829247859364422, 57.82708955034104 16.03093009230369, 57.38011807360571 16.34271804539089 M58.40534284457871 15.627565626425152 C58.12853080581625 15.820657721665825, 57.85171876705378 16.013749816906497, 57.38011807360571 16.34271804539089 M57.38011807360571 16.34271804539089 C57.12203619481193 16.49916879697314, 56.86395431601816 16.655619548555393, 56.31117976407678 16.990714730406093 M57.38011807360571 16.34271804539089 C57.13216920946415 16.493026103942764, 56.88422034532259 16.643334162494636, 56.31117976407678 16.990714730406093 M56.31117976407678 16.990714730406093 C56.018029575752415 17.14365099588326, 55.72487938742805 17.296587261360425, 55.20292041279239 17.56889292409717 M56.31117976407678 16.990714730406093 C56.049085492934225 17.12744914378177, 55.78699122179167 17.264183557157452, 55.20292041279239 17.56889292409717 M55.20292041279239 17.56889292409717 C54.85306401181099 17.723763974690232, 54.503207610829605 17.878635025283295, 54.059894095147804 18.07487676824742 M55.20292041279239 17.56889292409717 C54.778908485658654 17.756590426372348, 54.35489655852492 17.944287928647526, 54.059894095147804 18.07487676824742 M54.059894095147804 18.07487676824742 C53.616996258191335 18.237867266350126, 53.174098421234866 18.40085776445283, 52.88679775146062 18.506587066708033 M54.059894095147804 18.07487676824742 C53.74102341370793 18.19222412662556, 53.42215273226806 18.3095714850037, 52.88679775146062 18.506587066708033 M52.88679775146062 18.506587066708033 C52.48312190625609 18.626395938626988, 52.07944606105156 18.74620481054594, 51.68845188623541 18.86224982926107 M52.88679775146062 18.506587066708033 C52.4614969671117 18.63281410705342, 52.03619618276278 18.759041147398808, 51.68845188623541 18.86224982926107 M51.68845188623541 18.86224982926107 C51.40939778594161 18.925942106654947, 51.1303436856478 18.98963438404882, 50.469780759676766 19.140403561325773 M51.68845188623541 18.86224982926107 C51.236268323648844 18.965457776647945, 50.78408476106227 19.06866572403482, 50.469780759676766 19.140403561325773 M50.469780759676766 19.140403561325773 C50.02006866928461 19.213109524531028, 49.57035657889246 19.285815487736286, 49.23579215284788 19.3399052695533 M50.469780759676766 19.140403561325773 C50.0784188234817 19.20367592411265, 49.68705688728663 19.266948286899524, 49.23579215284788 19.3399052695533 M49.23579215284788 19.3399052695533 C48.778354948685276 19.384033686490138, 48.320917744522674 19.428162103426978, 47.9915567896239 19.45993515863156 M49.23579215284788 19.3399052695533 C48.90623350553493 19.37169739590732, 48.57667485822198 19.403489522261335, 47.9915567896239 19.45993515863156 M47.9915567896239 19.45993515863156 C47.502637473193026 19.47561384948578, 47.01371815676216 19.491292540339998, 46.74218750000001 19.5 M47.9915567896239 19.45993515863156 C47.69382781845508 19.469482747242658, 47.396098847286254 19.479030335853754, 46.74218750000001 19.5 M46.74218750000001 19.5 C46.74218750000001 19.5, 46.7421875 19.5, 46.7421875 19.5 M46.74218750000001 19.5 C46.74218750000001 19.5, 46.74218750000001 19.5, 46.7421875 19.5 M46.7421875 19.5 C26.178004267476688 19.5, 5.613821034953375 19.5, -46.74218749999999 19.5 M46.7421875 19.5 C9.555022955452273 19.5, -27.632141589095454 19.5, -46.74218749999999 19.5 M-46.74218749999999 19.5 C-47.204854371260346 19.485163173965113, -47.66752124252069 19.47032634793023, -47.99155678962389 19.45993515863156 M-46.74218749999999 19.5 C-47.20070420571893 19.48529626169622, -47.65922091143786 19.47059252339244, -47.99155678962389 19.45993515863156 M-47.99155678962389 19.45993515863156 C-48.40494785886237 19.42005581935762, -48.81833892810086 19.380176480083687, -49.23579215284787 19.3399052695533 M-47.99155678962389 19.45993515863156 C-48.38081192356541 19.422384184008013, -48.77006705750693 19.384833209384464, -49.23579215284787 19.3399052695533 M-49.23579215284787 19.3399052695533 C-49.65507282566682 19.27211922194211, -50.07435349848578 19.20433317433092, -50.46978075967676 19.140403561325773 M-49.23579215284787 19.3399052695533 C-49.68167614542363 19.267818203515656, -50.127560137999396 19.195731137478013, -50.46978075967676 19.140403561325773 M-50.46978075967676 19.140403561325773 C-50.7173484536181 19.083897850713843, -50.96491614755945 19.027392140101913, -51.688451886235384 18.862249829261074 M-50.46978075967676 19.140403561325773 C-50.91317697032076 19.03920126967696, -51.356573180964766 18.937998978028144, -51.688451886235384 18.862249829261074 M-51.688451886235384 18.862249829261074 C-52.100357571679815 18.739998383958234, -52.512263257124246 18.61774693865539, -52.88679775146059 18.506587066708043 M-51.688451886235384 18.862249829261074 C-51.96227991790056 18.78097910681552, -52.236107949565735 18.699708384369966, -52.88679775146059 18.506587066708043 M-52.88679775146059 18.506587066708043 C-53.24687683207702 18.374074636506663, -53.60695591269346 18.241562206305282, -54.0598940951478 18.074876768247425 M-52.88679775146059 18.506587066708043 C-53.19329251694027 18.39379415980497, -53.49978728241994 18.281001252901895, -54.0598940951478 18.074876768247425 M-54.0598940951478 18.074876768247425 C-54.49505076210971 17.88224582024727, -54.930207429071636 17.689614872247116, -55.20292041279238 17.568892924097174 M-54.0598940951478 18.074876768247425 C-54.3872281542737 17.929975690292252, -54.7145622133996 17.785074612337084, -55.20292041279238 17.568892924097174 M-55.20292041279238 17.568892924097174 C-55.51606959313895 17.40552319729199, -55.82921877348552 17.24215347048681, -56.31117976407678 16.990714730406097 M-55.20292041279238 17.568892924097174 C-55.58943523099971 17.367248391012964, -55.97595004920705 17.165603857928755, -56.31117976407678 16.990714730406097 M-56.31117976407678 16.990714730406097 C-56.52937934168854 16.858440864174803, -56.747578919300295 16.726166997943505, -57.380118073605686 16.3427180453909 M-56.31117976407678 16.990714730406097 C-56.699184136814566 16.755504199485664, -57.08718850955235 16.52029366856523, -57.380118073605686 16.3427180453909 M-57.380118073605686 16.3427180453909 C-57.73358134281899 16.096157369966015, -58.08704461203229 15.849596694541129, -58.40534284457871 15.627565626425156 M-57.380118073605686 16.3427180453909 C-57.77974580415998 16.063955040161865, -58.179373534714266 15.785192034932827, -58.40534284457871 15.627565626425156 M-58.40534284457871 15.627565626425156 C-58.76694479070514 15.339197697021243, -59.12854673683156 15.05082976761733, -59.382641208501866 14.848196188198125 M-58.40534284457871 15.627565626425156 C-58.66023743150258 15.424293976383195, -58.915132018426455 15.221022326341235, -59.382641208501866 14.848196188198125 M-59.382641208501866 14.848196188198125 C-59.60497032870687 14.64628276373411, -59.82729944891187 14.444369339270095, -60.307997236767974 14.007812326905697 M-59.382641208501866 14.848196188198125 C-59.598161393816284 14.652466458247197, -59.8136815791307 14.456736728296269, -60.307997236767974 14.007812326905697 M-60.307997236767974 14.007812326905697 C-60.54653425202171 13.76150327440305, -60.785071267275434 13.515194221900403, -61.177608442968655 13.109867360095677 M-60.307997236767974 14.007812326905697 C-60.543047419104354 13.765103715664525, -60.77809760144073 13.522395104423353, -61.177608442968655 13.109867360095677 M-61.177608442968655 13.109867360095677 C-61.43991244032831 12.801750159276759, -61.70221643768795 12.493632958457841, -61.987901408126575 12.158051136245307 M-61.177608442968655 13.109867360095677 C-61.43464201295881 12.807941103160779, -61.69167558294897 12.50601484622588, -61.987901408126575 12.158051136245307 M-61.987901408126575 12.158051136245307 C-62.21527460857998 11.853391761762433, -62.44264780903339 11.54873238727956, -62.735546464640635 11.156274872382316 M-61.987901408126575 12.158051136245307 C-62.26376670892039 11.788416765027511, -62.539632009714204 11.418782393809716, -62.735546464640635 11.156274872382316 M-62.735546464640635 11.156274872382316 C-62.9821844525341 10.777372691404917, -63.22882244042756 10.398470510427519, -63.41747137860425 10.108655082055249 M-62.735546464640635 11.156274872382316 C-62.899382380751234 10.904578909132924, -63.063218296861834 10.652882945883531, -63.41747137860425 10.108655082055249 M-63.41747137860425 10.108655082055249 C-63.60661934109143 9.772803721351144, -63.79576730357861 9.43695236064704, -64.0308739742735 9.019496659696289 M-63.41747137860425 10.108655082055249 C-63.64974860271984 9.696223350018583, -63.88202582683543 9.283791617981917, -64.0308739742735 9.019496659696289 M-64.0308739742735 9.019496659696289 C-64.16561807911181 8.739697642937564, -64.30036218395011 8.459898626178838, -64.57323364880834 7.893275190886686 M-64.0308739742735 9.019496659696289 C-64.24032794808822 8.584561001472913, -64.44978192190295 8.14962534324954, -64.57323364880834 7.893275190886686 M-64.57323364880834 7.893275190886686 C-64.68069781230705 7.627836629366613, -64.78816197580576 7.362398067846541, -65.04232172997033 6.73461856121551 M-64.57323364880834 7.893275190886686 C-64.74810171690726 7.461347681838269, -64.92296978500617 7.029420172789852, -65.04232172997033 6.73461856121551 M-65.04232172997033 6.73461856121551 C-65.19914447268951 6.262293446456165, -65.3559672154087 5.78996833169682, -65.43621063421489 5.5482879393051325 M-65.04232172997033 6.73461856121551 C-65.12608624599527 6.4823331850115675, -65.20985076202022 6.230047808807625, -65.43621063421489 5.5482879393051325 M-65.43621063421489 5.5482879393051325 C-65.52450757029727 5.211573453888802, -65.61280450637967 4.874858968472471, -65.75328178754556 4.339158212148136 M-65.43621063421489 5.5482879393051325 C-65.54253190256912 5.142838863141249, -65.64885317092335 4.737389786977366, -65.75328178754556 4.339158212148136 M-65.75328178754556 4.339158212148136 C-65.84508443722414 3.8677710085454833, -65.93688708690273 3.3963838049428308, -65.99223227658177 3.112197953150904 M-65.75328178754556 4.339158212148136 C-65.83892561184003 3.8993952752247343, -65.92456943613449 3.4596323383013328, -65.99223227658177 3.112197953150904 M-65.99223227658177 3.112197953150904 C-66.05057330154244 2.65971648429438, -66.10891432650313 2.207235015437856, -66.15208020250937 1.872449005199809 M-65.99223227658177 3.112197953150904 C-66.0432483615306 2.716527272553265, -66.09426444647943 2.3208565919556263, -66.15208020250937 1.872449005199809 M-66.15208020250937 1.872449005199809 C-66.16889950480639 1.6104747956271808, -66.18571880710341 1.3485005860545525, -66.23216871591342 0.6250057626472781 M-66.15208020250937 1.872449005199809 C-66.17080071857154 1.5808618566028803, -66.18952123463372 1.2892747080059515, -66.23216871591342 0.6250057626472781 M-66.23216871591342 0.6250057626472781 C-66.23216871591342 0.34347917629873925, -66.23216871591342 0.061952589950200365, -66.23216871591342 -0.6250057626472687 M-66.23216871591342 0.6250057626472781 C-66.23216871591342 0.3200714762738141, -66.23216871591342 0.015137189900350068, -66.23216871591342 -0.6250057626472687 M-66.23216871591342 -0.6250057626472687 C-66.20796733294291 -1.0019618374175596, -66.18376594997241 -1.3789179121878505, -66.15208020250937 -1.8724490051997822 M-66.23216871591342 -0.6250057626472687 C-66.20244296047085 -1.08800839786314, -66.17271720502829 -1.5510110330790112, -66.15208020250937 -1.8724490051997822 M-66.15208020250937 -1.8724490051997822 C-66.11316160333257 -2.174293975068352, -66.07424300415578 -2.4761389449369213, -65.99223227658177 -3.112197953150895 M-66.15208020250937 -1.8724490051997822 C-66.1015764726658 -2.2641459607770003, -66.05107274282223 -2.6558429163542185, -65.99223227658177 -3.112197953150895 M-65.99223227658177 -3.112197953150895 C-65.93441719444175 -3.4090661807179767, -65.87660211230173 -3.7059344082850583, -65.75328178754556 -4.339158212148126 M-65.99223227658177 -3.112197953150895 C-65.9107706407734 -3.53048623610407, -65.82930900496503 -3.9487745190572445, -65.75328178754556 -4.339158212148126 M-65.75328178754556 -4.339158212148126 C-65.64775259667506 -4.741586753577961, -65.54222340580458 -5.144015295007796, -65.43621063421489 -5.548287939305123 M-65.75328178754556 -4.339158212148126 C-65.67117428424474 -4.6522697078511985, -65.58906678094392 -4.965381203554271, -65.43621063421489 -5.548287939305123 M-65.43621063421489 -5.548287939305123 C-65.31247005845466 -5.9209748381115785, -65.18872948269443 -6.293661736918034, -65.04232172997033 -6.734618561215485 M-65.43621063421489 -5.548287939305123 C-65.32820882660276 -5.873572176081637, -65.22020701899065 -6.1988564128581505, -65.04232172997033 -6.734618561215485 M-65.04232172997033 -6.734618561215485 C-64.93793314961552 -6.992460372907772, -64.83354456926071 -7.2503021846000575, -64.57323364880834 -7.893275190886676 M-65.04232172997033 -6.734618561215485 C-64.87419616480138 -7.149891957669458, -64.70607059963244 -7.5651653541234305, -64.57323364880834 -7.893275190886676 M-64.57323364880834 -7.893275190886676 C-64.46258936644931 -8.123030410613598, -64.35194508409027 -8.352785630340522, -64.0308739742735 -9.019496659696282 M-64.57323364880834 -7.893275190886676 C-64.39768217114336 -8.2578115904579, -64.22213069347838 -8.622347990029125, -64.0308739742735 -9.019496659696282 M-64.0308739742735 -9.019496659696282 C-63.842161234825454 -9.354575237823303, -63.6534484953774 -9.689653815950322, -63.41747137860425 -10.108655082055243 M-64.0308739742735 -9.019496659696282 C-63.83886805881573 -9.360422605298801, -63.64686214335795 -9.701348550901322, -63.41747137860425 -10.108655082055243 M-63.41747137860425 -10.108655082055243 C-63.15042733910396 -10.51890643809282, -62.883383299603686 -10.929157794130399, -62.73554646464064 -11.156274872382308 M-63.41747137860425 -10.108655082055243 C-63.217268755469426 -10.41622007312202, -63.017066132334605 -10.723785064188796, -62.73554646464064 -11.156274872382308 M-62.73554646464064 -11.156274872382308 C-62.445266210670816 -11.545223967626713, -62.15498595670099 -11.934173062871118, -61.98790140812659 -12.158051136245302 M-62.73554646464064 -11.156274872382308 C-62.515622307509716 -11.450953207434868, -62.29569815037879 -11.745631542487427, -61.98790140812659 -12.158051136245302 M-61.98790140812659 -12.158051136245302 C-61.6896255455977 -12.508422936749117, -61.39134968306881 -12.858794737252934, -61.17760844296866 -13.10986736009567 M-61.98790140812659 -12.158051136245302 C-61.67545254027245 -12.525071355271006, -61.36300367241831 -12.89209157429671, -61.17760844296866 -13.10986736009567 M-61.17760844296866 -13.10986736009567 C-61.002092649271624 -13.291101827202512, -60.826576855574594 -13.472336294309354, -60.307997236767996 -14.007812326905677 M-61.17760844296866 -13.10986736009567 C-60.901863772952986 -13.394596370945294, -60.62611910293731 -13.679325381794918, -60.307997236767996 -14.007812326905677 M-60.307997236767996 -14.007812326905677 C-60.059054640875644 -14.233895405834959, -59.8101120449833 -14.45997848476424, -59.38264120850189 -14.848196188198107 M-60.307997236767996 -14.007812326905677 C-60.00554974880234 -14.282487133154069, -59.70310226083668 -14.55716193940246, -59.38264120850189 -14.848196188198107 M-59.38264120850189 -14.848196188198107 C-59.12432981493578 -15.05419265061221, -58.86601842136967 -15.26018911302631, -58.40534284457872 -15.627565626425149 M-59.38264120850189 -14.848196188198107 C-59.10164858575273 -15.072280327312834, -58.820655963003574 -15.29636446642756, -58.40534284457872 -15.627565626425149 M-58.40534284457872 -15.627565626425149 C-58.171349912964565 -15.790788966128432, -57.93735698135041 -15.954012305831714, -57.380118073605715 -16.342718045390885 M-58.40534284457872 -15.627565626425149 C-58.11059038675462 -15.833172181374989, -57.81583792893053 -16.03877873632483, -57.380118073605715 -16.342718045390885 M-57.380118073605715 -16.342718045390885 C-57.067049156129876 -16.532502262961913, -56.75398023865404 -16.72228648053294, -56.31117976407679 -16.99071473040609 M-57.380118073605715 -16.342718045390885 C-57.03929127981892 -16.549329250705, -56.69846448603213 -16.755940456019115, -56.31117976407679 -16.99071473040609 M-56.31117976407679 -16.99071473040609 C-55.897870959867646 -17.20633766882508, -55.484562155658494 -17.421960607244067, -55.20292041279239 -17.56889292409717 M-56.31117976407679 -16.99071473040609 C-55.925991163039846 -17.191667376841988, -55.54080256200291 -17.392620023277885, -55.20292041279239 -17.56889292409717 M-55.20292041279239 -17.56889292409717 C-54.74913850308453 -17.76976871456276, -54.29535659337667 -17.970644505028343, -54.059894095147804 -18.07487676824742 M-55.20292041279239 -17.56889292409717 C-54.844749064822246 -17.727444755068014, -54.48657771685211 -17.885996586038853, -54.059894095147804 -18.07487676824742 M-54.059894095147804 -18.07487676824742 C-53.622076603176744 -18.2359976524333, -53.184259111205684 -18.397118536619182, -52.88679775146062 -18.506587066708033 M-54.059894095147804 -18.07487676824742 C-53.757797164711164 -18.186051231201517, -53.45570023427452 -18.297225694155614, -52.88679775146062 -18.506587066708033 M-52.88679775146062 -18.506587066708033 C-52.44190200292526 -18.638629789567887, -51.9970062543899 -18.770672512427744, -51.68845188623541 -18.862249829261067 M-52.88679775146062 -18.506587066708033 C-52.61216062379078 -18.58809792460074, -52.33752349612094 -18.669608782493448, -51.68845188623541 -18.862249829261067 M-51.68845188623541 -18.862249829261067 C-51.3690027531061 -18.935162009297425, -51.049553619976784 -19.00807418933378, -50.469780759676766 -19.140403561325773 M-51.68845188623541 -18.862249829261067 C-51.21738832274242 -18.969767013651314, -50.74632475924944 -19.077284198041557, -50.469780759676766 -19.140403561325773 M-50.469780759676766 -19.140403561325773 C-50.0578234036316 -19.207005631874146, -49.64586604758644 -19.273607702422517, -49.23579215284788 -19.3399052695533 M-50.469780759676766 -19.140403561325773 C-50.17632671164882 -19.1878469360408, -49.88287266362087 -19.23529031075583, -49.23579215284788 -19.3399052695533 M-49.23579215284788 -19.3399052695533 C-48.73930827654463 -19.387800471991053, -48.24282440024138 -19.435695674428803, -47.9915567896239 -19.45993515863156 M-49.23579215284788 -19.3399052695533 C-48.89243884118077 -19.37302815058705, -48.54908552951366 -19.406151031620805, -47.9915567896239 -19.45993515863156 M-47.9915567896239 -19.45993515863156 C-47.61726895824967 -19.471937840876663, -47.242981126875435 -19.483940523121767, -46.74218750000001 -19.5 M-47.9915567896239 -19.45993515863156 C-47.700527437905365 -19.469267903486905, -47.40949808618684 -19.478600648342248, -46.74218750000001 -19.5 M-46.74218750000001 -19.5 C-46.74218750000001 -19.5, -46.7421875 -19.5, -46.7421875 -19.5 M-46.74218750000001 -19.5 C-46.74218750000001 -19.5, -46.7421875 -19.5, -46.7421875 -19.5" stroke="#333" stroke-width="2" fill="none" stroke-dasharray="0 0" style="fill:#f9f !important;stroke:#333 !important;stroke-width:2px !important"/></g><g class="label" style="" transform="translate(-53.8671875, -12)"><rect/><foreignObject width="107.734375" height="24"><div xmlns="http://www.w3.org/1999/xhtml" style="display: table-cell; white-space: nowrap; line-height: 1.5; max-width: 200px; text-align: center;"><span class="nodeLabel"><p>Tool Projection</p></span></div></foreignObject></g></g></g></g></g></svg>