<svg width="215" height="99" viewBox="0 0 215 99" fill="none" xmlns="http://www.w3.org/2000/svg">
<g clip-path="url(#clip0_21_299)">
<path fill-rule="evenodd" clip-rule="evenodd" d="M127.664 38.2806C124.052 33.6789 120.097 28.6387 114.662 28.6387L98.8961 28.6387V34.0989L98.8962 45.7019H93.6925C91.176 45.7019 89.136 43.6619 89.136 41.1455V28.6387H83.6758V41.0971C83.6758 46.6559 88.1821 51.1621 93.7408 51.1621H104.356L104.356 34.0989H111.659C117.477 34.0989 120.21 38.0334 123.051 42.1237C126.126 46.5516 129.329 51.1621 136.708 51.1621V45.7019C133.488 45.7019 130.697 42.1459 127.664 38.2806ZM114.663 51.1621V51.1467C119.034 50.9554 121.734 48.9222 123.902 46.3167C123.008 45.2196 122.223 44.1138 121.452 43.0269C121.077 42.5 120.706 41.9776 120.328 41.4627C118.571 43.7937 116.733 45.5504 113.98 45.7014V45.7019H111.796V36.0783H106.336V51.1621H111.796H114.663ZM138.415 51.1621V45.7019H136.708V51.1621H138.415ZM126.266 33.6994C128.96 31.0109 132.581 28.8903 138.244 28.7181V33.9727C138.305 33.9731 138.364 33.975 138.244 33.9811C134.376 34.178 131.86 35.8997 129.833 38.1832L129.747 38.069L129.621 37.9041C128.564 36.5117 127.548 35.1737 126.266 33.6994Z" fill="white"/>
<path d="M92.5797 82.7055H83.6758V59.5645H92.4893C94.8697 59.5645 96.9262 60.0277 98.6587 60.9543C100.399 61.8733 101.74 63.1991 102.681 64.9316C103.63 66.6567 104.105 68.7245 104.105 71.135C104.105 73.5455 103.634 75.6171 102.693 77.3496C101.751 79.0747 100.418 80.4005 98.6926 81.327C96.9676 82.246 94.9299 82.7055 92.5797 82.7055ZM89.9582 77.3722H92.3537C93.4987 77.3722 94.4742 77.1877 95.2802 76.8186C96.0938 76.4495 96.7115 75.8129 97.1333 74.909C97.5627 74.005 97.7774 72.747 97.7774 71.135C97.7774 69.523 97.5589 68.265 97.122 67.361C96.6926 66.4571 96.0599 65.8205 95.2237 65.4514C94.3951 65.0823 93.3782 64.8977 92.1729 64.8977H89.9582V77.3722Z" fill="white"/>
<path d="M107.012 82.7055V59.5645H123.69V64.6266H113.294V68.6039H122.831V73.666H113.294V77.6434H123.644V82.7055H107.012Z" fill="white"/>
<path d="M133.133 59.5645L137.879 75.8807H138.06L142.805 59.5645H149.901L142.263 82.7055H133.675L126.037 59.5645H133.133Z" fill="white"/>
<path d="M152.534 83.0671C151.66 83.0671 150.911 82.762 150.285 82.1519C149.668 81.5342 149.363 80.7846 149.37 79.9033C149.363 79.0445 149.668 78.3101 150.285 77.6999C150.911 77.0898 151.66 76.7847 152.534 76.7847C153.363 76.7847 154.093 77.0898 154.726 77.6999C155.366 78.3101 155.69 79.0445 155.698 79.9033C155.69 80.4909 155.536 81.0257 155.235 81.5078C154.941 81.9824 154.557 82.3628 154.082 82.649C153.607 82.9278 153.091 83.0671 152.534 83.0671Z" fill="white"/>
<path d="M158.997 82.7055V59.5645H165.28V68.9203H165.596L172.557 59.5645H179.878L172.059 69.8695L180.059 82.7055H172.557L167.359 74.0276L165.28 76.7395V82.7055H158.997Z" fill="white"/>
<path d="M188.025 59.5645V82.7055H181.743V59.5645H188.025Z" fill="white"/>
<path d="M190.37 64.6266V59.5645H210.483V64.6266H203.522V82.7055H197.33V64.6266H190.37Z" fill="white"/>
<g clip-path="url(#clip1_21_299)">
<path fill-rule="evenodd" clip-rule="evenodd" d="M28.8959 4.65625V36.5127C18.0624 36.7604 7.89161 39.6924 -0.978516 44.6703V24.209V14.0426C3.27925 13.5744 7.31227 12.3644 10.9871 10.5454H11.1395C16.2734 7.13428 22.3489 5.01539 28.8959 4.65625Z" fill="#3C3B6E"/>
<path fill-rule="evenodd" clip-rule="evenodd" d="M-0.978516 49.5856V50.1729H-0.87515C0.366279 67.2282 12.6573 81.5299 28.8959 85.4148V40.7529C17.9613 41.0203 7.75219 44.2159 -0.978516 49.5856Z" fill="white"/>
<path d="M5.69243 15.0674L6.40735 17.2329H8.72082L6.84916 18.5712L7.56408 20.7367L5.69243 19.3983L3.8208 20.7367L4.53569 18.5712L2.66406 17.2329H4.97753L5.69243 15.0674Z" fill="#FEFFFF"/>
<path d="M5.69243 23.541L6.40735 25.7065H8.72082L6.84916 27.0448L7.56408 29.2103L5.69243 27.872L3.8208 29.2103L4.53569 27.0448L2.66406 25.7065H4.97753L5.69243 23.541Z" fill="#FEFFFF"/>
<path d="M5.69243 32.0117L6.40735 34.1773H8.72082L6.84916 35.5156L7.56408 37.6811L5.69243 36.3426L3.8208 37.6811L4.53569 35.5156L2.66406 34.1773H4.97753L5.69243 32.0117Z" fill="#FEFFFF"/>
<path d="M14.1573 12.5762L14.8722 14.7417H17.1857L15.314 16.08L16.0289 18.2455L14.1573 16.9071L12.2856 18.2455L13.0005 16.08L11.1289 14.7417H13.4424L14.1573 12.5762Z" fill="#FEFFFF"/>
<path d="M14.1573 21.0498L14.8722 23.2153H17.1857L15.314 24.5536L16.0289 26.7191L14.1573 25.3808L12.2856 26.7191L13.0005 24.5536L11.1289 23.2153H13.4424L14.1573 21.0498Z" fill="#FEFFFF"/>
<path d="M14.1573 29.5205L14.8722 31.6861H17.1857L15.314 33.0244L16.0289 35.1899L14.1573 33.8514L12.2856 35.1899L13.0005 33.0244L11.1289 31.6861H13.4424L14.1573 29.5205Z" fill="#FEFFFF"/>
<path d="M22.3701 11.0801L23.0851 13.2456H25.3986L23.5269 14.5839L24.2417 16.7494L22.3701 15.411L20.4984 16.7494L21.2134 14.5839L19.3418 13.2456H21.6553L22.3701 11.0801Z" fill="#FEFFFF"/>
<path d="M22.3701 19.5527L23.0851 21.7182H25.3986L23.5269 23.0565L24.2417 25.222L22.3701 23.8837L20.4984 25.222L21.2134 23.0565L19.3418 21.7182H21.6553L22.3701 19.5527Z" fill="#FEFFFF"/>
<path d="M22.3701 28.0264L23.0851 30.1919H25.3986L23.5269 31.5302L24.2417 33.6958L22.3701 32.3572L20.4984 33.6958L21.2134 31.5302L19.3418 30.1919H21.6553L22.3701 28.0264Z" fill="#FEFFFF"/>
<path fill-rule="evenodd" clip-rule="evenodd" d="M62.7591 45.2409V24.209V14.0426C58.5013 13.5744 54.4683 12.3644 50.7935 10.5454H50.6411C45.5072 7.13428 39.4317 5.01539 32.8848 4.65625V36.5431C43.7518 36.9577 53.927 40.0744 62.7591 45.2409Z" fill="#4E85FF"/>
<path fill-rule="evenodd" clip-rule="evenodd" d="M62.6986 50.1715H62.6558C61.4143 67.2268 49.1232 81.5285 32.8848 85.4134V40.7842C43.8345 41.2314 54.0276 44.6159 62.6986 50.1715Z" fill="#FFCE4F"/>
<path fill-rule="evenodd" clip-rule="evenodd" d="M-0.978516 49.5856V50.3291H-0.87515C-0.724957 52.3785 -0.413118 54.3879 0.0478683 56.3439C8.30084 50.6884 18.209 47.276 28.8959 46.9845V40.7529C28.8926 40.7532 28.8891 40.7532 28.8859 40.7532C17.9551 41.0223 7.74956 44.2174 -0.978516 49.5856Z" fill="#B22234"/>
<path fill-rule="evenodd" clip-rule="evenodd" d="M28.8994 51.2217C18.6295 51.5389 9.16196 55.1137 1.45312 60.969C2.19028 62.9465 3.08439 64.8511 4.12038 66.6671C10.9913 61.1714 19.5636 57.7821 28.8994 57.4542V51.2217Z" fill="#B22234"/>
<path fill-rule="evenodd" clip-rule="evenodd" d="M28.8966 61.6914C20.3667 62.0123 12.5363 65.0689 6.25586 70.01C7.57835 71.8646 9.05895 73.6006 10.6779 75.1973C15.7033 70.9352 22.0096 68.2678 28.8966 67.9294V61.6914Z" fill="#B22234"/>
<path fill-rule="evenodd" clip-rule="evenodd" d="M28.8973 74.6631C23.9449 74.9424 19.3612 76.6014 15.5234 79.2623C16.7988 80.1678 18.1309 80.9983 19.5128 81.7468C22.3115 80.1414 25.4981 79.1365 28.8973 78.9072V74.6631Z" fill="#B22234"/>
<path fill-rule="evenodd" clip-rule="evenodd" d="M28.8993 82.6533C27.1571 82.7951 25.4844 83.1831 23.916 83.7821C25.528 84.4077 27.1917 84.928 28.8993 85.3337V82.6533Z" fill="#B22234"/>
</g>
</g>
<defs>
<clipPath id="clip0_21_299">
<rect width="215" height="99" fill="white"/>
</clipPath>
<clipPath id="clip1_21_299">
<rect width="63.7182" height="80.1616" fill="white" transform="translate(-1.08398 4.91992)"/>
</clipPath>
</defs>
</svg>
